<svg width="165" height="163" viewBox="0 0 165 163" fill="none" xmlns="http://www.w3.org/2000/svg">
<path d="M162.386 82.6904L155.54 20.6529L134.689 1.97491H37.0986L28.1941 82.6904C27.6956 86.4542 27.4456 90.2477 27.4456 94.045V144.136C27.4456 153.601 35.1188 161.273 44.5828 161.273H84.1472H106.432H145.995C155.463 161.273 163.133 153.601 163.133 144.136V94.045C163.133 90.2477 162.881 86.4542 162.386 82.6904Z" fill="white"/>
<path d="M123.68 137.905H66.8992C56.4007 137.905 47.8896 129.394 47.8896 118.896V108.531C47.8896 98.0329 56.4007 89.5226 66.8992 89.5226H123.68C134.178 89.5226 142.686 98.0329 142.686 108.531V118.896C142.686 129.394 134.178 137.905 123.68 137.905Z" fill="white"/>
<path d="M37.9936 2.97363L29.1883 82.7994C28.6942 86.5327 28.4449 90.3087 28.4449 94.045V144.136C28.4449 153.035 35.6852 160.275 44.5835 160.275H145.995C154.892 160.275 162.134 153.035 162.134 144.136V94.045C162.134 90.3087 161.883 86.5327 161.395 82.8215C161.395 82.8139 161.395 82.807 161.387 82.7994L154.587 21.1408L134.308 2.97363H37.9936ZM145.995 162.272H44.5835C34.5835 162.272 26.446 154.136 26.446 144.136V94.045C26.446 90.2218 26.7015 86.3574 27.2039 82.5585L36.1052 1.86061C36.1624 1.35745 36.5901 0.976212 37.0986 0.976212H134.689C134.941 0.976212 135.177 1.06769 135.36 1.22778L156.211 19.9057C156.394 20.0658 156.508 20.2946 156.531 20.5386L163.377 82.57C163.88 86.3642 164.132 90.2256 164.132 94.045V144.136C164.132 154.136 155.997 162.272 145.995 162.272Z" fill="#383838"/>
<path d="M66.8984 90.5212C56.9679 90.5212 48.889 98.6008 48.889 108.531V118.896C48.889 128.827 56.9679 136.907 66.8984 136.907H123.68C133.614 136.907 141.687 128.827 141.687 118.896V108.531C141.687 98.6008 133.614 90.5212 123.68 90.5212H66.8984ZM123.68 138.904H66.8984C55.8662 138.904 46.8901 129.929 46.8901 118.896V108.531C46.8901 97.4992 55.8662 88.5231 66.8984 88.5231H123.68C134.712 88.5231 143.692 97.4992 143.692 108.531V118.896C143.692 129.929 134.712 138.904 123.68 138.904Z" fill="#383838"/>
<path d="M39.076 36.5404H31.2793C27.5414 36.5404 24.5117 39.567 24.5117 43.3057V54.8296H45.8435V43.3057C45.8435 39.567 42.8138 36.5404 39.076 36.5404Z" fill="white"/>
<path d="M25.5114 53.8309H44.8442V43.305C44.8442 40.1236 42.2567 37.5392 39.0754 37.5392H31.2786C28.0988 37.5392 25.5114 40.1236 25.5114 43.305V53.8309ZM45.8437 55.8283H24.5119C23.9591 55.8283 23.5125 55.3816 23.5125 54.8296V43.305C23.5125 39.0258 26.9972 35.5418 31.2786 35.5418H39.0754C43.3583 35.5418 46.8439 39.0258 46.8439 43.305V54.8296C46.8439 55.3816 46.3964 55.8283 45.8437 55.8283Z" fill="#383838"/>
<path d="M49.15 54.8296H21.2047C20.1328 54.8296 19.2629 55.6995 19.2629 56.7713C19.2629 57.844 20.1328 58.7131 21.2047 58.7131H49.15C50.2226 58.7131 51.0917 57.844 51.0917 56.7713C51.0917 55.6995 50.2226 54.8296 49.15 54.8296Z" fill="white"/>
<path d="M56.3756 109.994C56.3756 105.567 58.6391 101.67 62.0713 99.3953C66.477 96.4754 69.0812 91.5056 69.0812 86.2194V83.6502C69.0812 74.2266 64.2234 65.9305 56.3764 61.5278L51.3608 58.7132H35.6461H34.9776H19.2629L14.2473 61.5278C6.4003 65.9305 1.54248 74.2266 1.54248 83.224V86.2171C1.54248 91.5033 4.14674 96.4754 8.55245 99.3953C11.9846 101.67 14.2481 105.567 14.2481 109.994C14.2481 114.419 11.9846 118.316 8.55245 120.591C4.14674 123.511 1.54248 128.477 1.54248 133.763V147.739C1.54248 156.088 6.73494 161.273 13.1403 161.273H34.9776H35.6461H57.4834C63.8888 161.273 69.0812 156.081 69.0812 149.676V133.77C69.0812 128.484 66.477 123.511 62.0713 120.591C58.6391 118.316 56.3756 114.419 56.3756 109.994Z" fill="white"/>
<path d="M49.4639 87.2866C49.4639 94.9179 43.2773 101.104 35.646 101.104C28.0147 101.104 21.8281 94.9179 21.8281 87.2866C21.8281 79.6553 28.0147 73.4687 35.646 73.4687C43.2773 73.4687 49.4639 79.6553 49.4639 87.2866Z" fill="white"/>
<path d="M35.6464 74.4667C28.5777 74.4667 22.828 80.2179 22.828 87.2858C22.828 94.3545 28.5777 100.105 35.6464 100.105C42.715 100.105 48.4649 94.3545 48.4649 87.2858C48.4649 80.2179 42.715 74.4667 35.6464 74.4667ZM35.6464 102.102C27.4761 102.102 20.8291 95.4561 20.8291 87.2858C20.8291 79.1155 27.4761 72.4693 35.6464 72.4693C43.8167 72.4693 50.4638 79.1155 50.4638 87.2858C50.4638 95.4561 43.8167 102.102 35.6464 102.102Z" fill="#383838"/>
<path d="M21.2056 55.8283C20.6849 55.8283 20.2634 56.2514 20.2634 56.7721C20.2634 57.2921 20.6849 57.7152 21.2056 57.7152H49.1502C49.6709 57.7152 50.0932 57.2921 50.0932 56.7721C50.0932 56.2514 49.6709 55.8283 49.1502 55.8283H21.2056ZM49.1502 59.7126H21.2056C19.5833 59.7126 18.2637 58.3937 18.2637 56.7721C18.2637 55.1498 19.5833 53.8309 21.2056 53.8309H49.1502C50.7725 53.8309 52.0922 55.1498 52.0922 56.7721C52.0922 58.3937 50.7725 59.7126 49.1502 59.7126Z" fill="#383838"/>
<path d="M19.5246 59.7127L14.737 62.3993C7.21321 66.6205 2.54146 74.6002 2.54146 83.2241V86.2178C2.54146 91.2235 4.99397 95.8381 9.10465 98.5628C12.9508 101.111 15.247 105.384 15.247 109.993C15.247 114.602 12.9508 118.875 9.10465 121.424C4.99397 124.149 2.54146 128.761 2.54146 133.762V147.739C2.54146 155.12 6.89986 160.275 13.1398 160.275H57.4843C63.3286 160.275 68.0812 155.519 68.0812 149.676V133.77C68.0812 128.763 65.6294 124.148 61.5188 121.424C57.6734 118.875 55.3772 114.601 55.3772 109.993C55.3772 105.385 57.6734 101.112 61.5188 98.5628C65.6294 95.8389 68.0812 91.2251 68.0812 86.2201V83.6495C68.0812 74.6276 63.5238 66.683 55.8872 62.3993L51.1003 59.7127H19.5246ZM57.4843 162.272H13.1398C5.84018 162.272 0.54248 156.16 0.54248 147.739V133.762C0.54248 128.09 3.33124 122.854 7.99996 119.759C11.2865 117.581 13.2481 113.93 13.2481 109.993C13.2481 106.057 11.2865 102.406 7.99996 100.229C3.33124 97.1326 0.54248 91.8952 0.54248 86.2178V83.2241C0.54248 73.8782 5.60766 65.2314 13.7589 60.6565L18.7745 57.8426C18.9247 57.7587 19.0924 57.7153 19.2632 57.7153H51.3611C51.5318 57.7153 51.7003 57.7587 51.8505 57.8426L56.8661 60.6565C65.1401 65.2993 70.0809 73.895 70.0809 83.6495V86.2201C70.0809 91.8975 67.2922 97.1334 62.6235 100.229C59.3377 102.406 57.3761 106.057 57.3761 109.993C57.3761 113.93 59.3377 117.581 62.6235 119.758C67.2922 122.853 70.0809 128.092 70.0809 133.77V149.676C70.0809 156.621 64.4302 162.272 57.4843 162.272Z" fill="#383838"/>
<path d="M95.2893 40.985C79.9901 40.985 67.5444 28.5356 67.5444 13.2425C67.5444 12.3887 68.2314 11.7026 69.0806 11.7026C69.9307 11.7026 70.6176 12.3887 70.6176 13.2425C70.6176 26.8431 81.6864 37.9127 95.2893 37.9127C108.893 37.9127 119.96 26.8431 119.96 13.2425C119.96 12.3887 120.646 11.7026 121.5 11.7026C122.346 11.7026 123.032 12.3887 123.032 13.2425C123.032 28.5356 110.588 40.985 95.2893 40.985Z" fill="#383838"/>
</svg>
