<svg width="179" height="182" viewBox="0 0 179 182" fill="none" xmlns="http://www.w3.org/2000/svg">
<path d="M73.7771 7.16853C69.0604 13.9704 61.2072 18.4317 52.3036 18.4317C43.4007 18.4317 35.5475 13.9704 30.8308 7.16853L10.0716 10.0754C4.91418 10.7974 1.07642 15.2092 1.07642 20.4177V113.493C1.07642 120.164 6.48385 125.569 13.1545 125.569H52.3036H91.4533C98.1232 125.569 103.529 120.164 103.529 113.493V20.4177C103.529 15.2092 99.6937 10.7974 94.5356 10.0754L73.7771 7.16853Z" fill="#383838"/>
<path d="M30.368 8.24113L10.2095 11.0642C5.57206 11.7145 2.07507 15.7344 2.07507 20.4176V113.493C2.07507 119.6 7.0442 124.57 13.1538 124.57H91.4525C97.5621 124.57 102.531 119.6 102.531 113.493V20.4176C102.531 15.7344 99.0343 11.7145 94.3968 11.0642L74.2398 8.24113C69.1343 15.2587 60.98 19.4311 52.3043 19.4311C43.6278 19.4311 35.4743 15.2587 30.368 8.24113ZM91.4525 126.568H13.1538C5.94258 126.568 0.0761719 120.705 0.0761719 113.493V20.4176C0.0761719 14.7441 4.31415 9.87259 9.93354 9.08582L30.6927 6.17893C31.0587 6.12633 31.4368 6.28872 31.6518 6.59976C36.3564 13.3833 44.0769 17.4322 52.3043 17.4322C60.5318 17.4322 68.2515 13.3833 72.9568 6.59976C73.1695 6.28872 73.5385 6.12633 73.9158 6.17893L94.6728 9.08582C100.292 9.87259 104.528 14.7441 104.528 20.4176V113.493C104.528 120.705 98.6638 126.568 91.4525 126.568Z" fill="#383838"/>
<path d="M73.7771 1.33556C69.0604 8.13662 61.2072 12.5987 52.3036 12.5987C43.4007 12.5987 35.5475 8.13662 30.8308 1.33556L10.0716 4.24171C4.91418 4.96366 1.07642 9.37547 1.07642 14.5839V107.661C1.07642 114.332 6.48385 119.737 13.1545 119.737H52.3036H91.4533C98.1232 119.737 103.529 114.332 103.529 107.661V14.5839C103.529 9.37547 99.6937 4.96366 94.5356 4.24171L73.7771 1.33556Z" fill="white"/>
<path d="M30.368 2.40907L10.2095 5.23059C5.57206 5.88089 2.07507 9.90084 2.07507 14.5841V107.661C2.07507 113.768 7.0442 118.738 13.1538 118.738H91.4525C97.5621 118.738 102.531 113.768 102.531 107.661V14.5841C102.531 9.90084 99.0343 5.88089 94.3968 5.23059L74.2398 2.40907C69.1343 9.42665 60.98 13.5976 52.3043 13.5976C43.6278 13.5976 35.4743 9.42665 30.368 2.40907ZM91.4525 120.736H13.1538C5.94258 120.736 0.0761719 114.873 0.0761719 107.661V14.5841C0.0761719 8.91052 4.31415 4.03902 9.93354 3.25226L30.6927 0.34687C31.0587 0.295792 31.4353 0.456657 31.6518 0.766937C36.3564 7.54971 44.0769 11.5986 52.3043 11.5986C60.5318 11.5986 68.2515 7.54971 72.9568 0.766937C73.1726 0.456657 73.5385 0.295792 73.9158 0.34687L94.6728 3.25226C100.292 4.03902 104.528 8.91052 104.528 14.5841V107.661C104.528 114.873 98.6638 120.736 91.4525 120.736Z" fill="#383838"/>
<path d="M116.809 31.6587C112.09 38.4597 104.238 42.9219 95.3343 42.9219C86.4314 42.9219 78.5783 38.4597 73.8615 31.6587L53.1023 34.5648C47.9449 35.2868 44.1072 39.6993 44.1072 44.9078V137.98C44.1072 144.651 49.5147 150.064 56.1854 150.064H95.3343H134.481C141.152 150.064 146.565 144.651 146.565 137.98V44.9078C146.565 39.6993 142.722 35.2868 137.569 34.5648L116.809 31.6587Z" fill="#383838"/>
<path d="M73.399 32.7313L53.2405 35.5543C48.6031 36.2039 45.1061 40.2246 45.1061 44.907V137.98C45.1061 144.095 50.0752 149.058 56.1848 149.058H134.481C140.595 149.058 145.566 144.095 145.566 137.98V44.907C145.566 40.2246 142.067 36.2039 137.432 35.5543L117.267 32.7313C112.167 39.7489 104.009 43.9213 95.3352 43.9213C86.6588 43.9213 78.5053 39.7489 73.399 32.7313ZM134.481 151.063H56.1848C48.9736 151.063 43.1072 145.192 43.1072 137.98V44.907C43.1072 39.2343 47.3452 34.3628 52.9645 33.576L73.7237 30.6691C74.0897 30.6165 74.4678 30.7789 74.6828 31.0891C79.3874 37.8727 87.1078 41.9224 95.3352 41.9224C103.56 41.9224 111.282 37.8727 115.986 31.0891C116.2 30.7789 116.573 30.6165 116.947 30.6691L137.706 33.576C143.325 34.3628 147.563 39.2343 147.563 44.907V137.98C147.563 145.192 141.693 151.063 134.481 151.063Z" fill="#383838"/>
<path d="M116.809 25.825C112.09 32.6268 104.238 37.0882 95.3343 37.0882C86.4314 37.0882 78.5783 32.6268 73.8615 25.825L53.1023 28.7319C47.9449 29.4539 44.1072 33.8657 44.1072 39.0742V132.148C44.1072 138.819 49.5147 144.224 56.1854 144.224H95.3343H134.481C141.152 144.224 146.565 138.819 146.565 132.148V39.0742C146.565 33.8657 142.722 29.4539 137.569 28.7312L116.809 25.825Z" fill="white"/>
<path d="M73.399 26.8978L53.2405 29.7209C48.6031 30.3704 45.1061 34.3911 45.1061 39.0736V132.148C45.1061 138.255 50.0752 143.226 56.1848 143.226H134.481C140.595 143.226 145.566 138.255 145.566 132.148V39.0736C145.566 34.3911 142.067 30.3704 137.432 29.7209L117.267 26.8978C112.167 33.9154 104.009 38.0878 95.3352 38.0878C86.6588 38.0878 78.5053 33.9154 73.399 26.8978ZM134.481 145.231H56.1848C48.9736 145.231 43.1072 139.36 43.1072 132.148V39.0736C43.1072 33.4008 47.3452 28.5293 52.9645 27.7425L73.7237 24.8356C74.0897 24.7861 74.4678 24.9439 74.6828 25.2557C79.3874 32.0392 87.1078 36.0889 95.3352 36.0889C103.56 36.0889 111.282 32.0392 115.986 25.2557C116.2 24.9439 116.573 24.7861 116.947 24.8356L137.706 27.7425C143.325 28.5293 147.563 33.4008 147.563 39.0736V132.148C147.563 139.36 141.693 145.231 134.481 145.231Z" fill="#383838"/>
<path d="M147.342 62.1907C142.623 68.9918 134.771 73.4539 125.867 73.4539C116.962 73.4539 109.11 68.9918 104.391 62.1907L83.6346 65.0969C78.4764 65.8189 74.6394 70.2307 74.6394 75.4391V168.513C74.6394 175.184 80.0469 180.597 86.7176 180.597H125.867H165.014C171.685 180.597 177.098 175.184 177.098 168.513V75.4391C177.098 70.2307 173.255 65.8189 168.102 65.0969L147.342 62.1907Z" fill="#383838"/>
<path d="M103.933 63.2633L83.7725 66.0863C79.135 66.7359 75.6381 70.7566 75.6381 75.439V168.513C75.6381 174.627 80.6072 179.59 86.7168 179.59H165.014C171.128 179.59 176.091 174.627 176.091 168.513V75.439C176.091 70.7566 172.6 66.7359 167.957 66.0863L147.8 63.2633C142.7 70.2809 134.542 74.4533 125.867 74.4533C117.191 74.4533 109.034 70.2809 103.933 63.2633ZM165.014 181.595H86.7168C79.5056 181.595 73.6392 175.725 73.6392 168.513V75.439C73.6392 69.7663 77.8772 64.894 83.4958 64.108L104.253 61.2011C104.619 61.1485 105.001 61.3101 105.214 61.6211C109.918 68.4047 117.641 72.4536 125.867 72.4536C134.092 72.4536 141.815 68.4047 146.519 61.6211C146.733 61.3101 147.098 61.1485 147.48 61.2011L168.239 64.108C173.857 64.894 178.096 69.7663 178.096 75.439V168.513C178.096 175.725 172.226 181.595 165.014 181.595Z" fill="#383838"/>
<path d="M147.342 56.3571C142.623 63.1582 134.771 67.6203 125.867 67.6203C116.962 67.6203 109.11 63.1582 104.391 56.3571L83.6346 59.2632C78.4764 59.9852 74.6394 64.3978 74.6394 69.6055V162.681C74.6394 169.352 80.0469 174.757 86.7176 174.757H125.867H165.014C171.685 174.757 177.098 169.352 177.098 162.681V69.6055C177.098 64.3978 173.255 59.9852 168.102 59.2632L147.342 56.3571Z" fill="white"/>
<path d="M103.933 57.4297L83.7725 60.2528C79.135 60.9023 75.6381 64.923 75.6381 69.6055V162.681C75.6381 168.788 80.6072 173.758 86.7168 173.758H165.014C171.128 173.758 176.091 168.788 176.091 162.681V69.6055C176.091 64.923 172.6 60.9023 167.957 60.2528L147.8 57.4297C142.7 64.4473 134.542 68.6197 125.867 68.6197C117.191 68.6197 109.034 64.4473 103.933 57.4297ZM165.014 175.756H86.7168C79.5056 175.756 73.6392 169.893 73.6392 162.681V69.6055C73.6392 63.9327 77.8772 59.0604 83.4958 58.2744L104.253 55.3675C104.619 55.318 105.001 55.475 105.214 55.7876C109.918 62.5711 117.641 66.62 125.867 66.62C134.092 66.62 141.815 62.5711 146.519 55.7876C146.733 55.475 147.098 55.318 147.48 55.3675L168.239 58.2744C173.857 59.0604 178.096 63.9327 178.096 69.6055V162.681C178.096 169.893 172.226 175.756 165.014 175.756Z" fill="#383838"/>
</svg>
