<svg width="178" height="165" viewBox="0 0 178 165" fill="none" xmlns="http://www.w3.org/2000/svg">
<path d="M113.573 22.3432C108.856 29.1443 101.003 33.6065 92.0995 33.6065C83.1958 33.6065 75.3434 29.1443 70.6267 22.3432L40.8723 26.5088V159.187H92.0995H143.327V26.5088L113.573 22.3432Z" fill="white"/>
<path d="M40.8723 26.5088L7.57446 51.6096L27.0407 79.7852L40.8723 71.0767V26.5088Z" fill="white"/>
<path d="M143.327 26.5088L176.625 51.6096L157.158 79.7852L143.327 71.0767V26.5088Z" fill="white"/>
<path d="M8.94133 51.83L27.3182 78.4297L39.8736 70.5247V28.5131L8.94133 51.83ZM27.0414 80.7847C26.7243 80.7847 26.4117 80.633 26.2188 80.3524L6.75335 52.1776C6.4484 51.7362 6.54598 51.1348 6.97366 50.8123L40.2715 25.7114C40.5734 25.4827 40.9782 25.4445 41.3182 25.6153C41.6575 25.7838 41.8709 26.1299 41.8709 26.5088V71.0759C41.8709 71.4198 41.6948 71.7377 41.4044 71.9206L27.5728 80.6299C27.4081 80.7336 27.2236 80.7847 27.0414 80.7847Z" fill="#383838"/>
<path d="M144.325 70.5247L156.881 78.4297L175.258 51.83L144.325 28.5131V70.5247ZM157.157 80.7847C156.975 80.7847 156.791 80.7336 156.626 80.6299L142.794 71.9206C142.504 71.7377 142.328 71.4198 142.328 71.0759V26.5088C142.328 26.1299 142.542 25.7838 142.881 25.6153C143.219 25.4461 143.625 25.4842 143.928 25.7114L177.225 50.8123C177.653 51.1348 177.75 51.7362 177.446 52.1776L157.98 80.3524C157.787 80.633 157.475 80.7847 157.157 80.7847Z" fill="#383838"/>
<path d="M41.8709 158.188H142.328V27.3779L114.036 23.4167C108.929 30.4335 100.775 34.6051 92.1002 34.6051C83.4237 34.6051 75.2702 30.4335 70.1631 23.4167L41.8709 27.3779V158.188ZM143.327 160.187H40.8722C40.3203 160.187 39.8735 159.741 39.8735 159.188V26.5088C39.8735 26.0102 40.2402 25.5886 40.7335 25.52L70.4879 21.3537C70.866 21.2996 71.2327 21.465 71.4469 21.773C76.1515 28.5573 83.8727 32.607 92.1002 32.607C100.326 32.607 108.047 28.5573 112.752 21.773C112.966 21.4642 113.332 21.2935 113.712 21.3537L143.465 25.52C143.959 25.5886 144.325 26.0102 144.325 26.5088V159.188C144.325 159.741 143.878 160.187 143.327 160.187Z" fill="#383838"/>
<path d="M18.7272 14.6502C16.5476 14.6502 16.1009 17.3963 16.5766 20.0051C17.0515 22.6139 18.7272 23.8824 18.7272 23.8824C18.7272 23.8824 20.4029 22.6139 20.8778 20.0051C21.3528 17.3963 20.9068 14.6502 18.7272 14.6502Z" fill="#E649AD"/>
<path d="M9.67687 21.5756C9.24614 23.7125 11.8496 24.6921 14.5004 24.7417C17.1519 24.7912 18.7269 23.3992 18.7269 23.3992C18.7269 23.3992 17.8136 21.5062 15.3504 20.525C12.8872 19.5439 10.1068 19.4395 9.67687 21.5756Z" fill="#E649AD"/>
<path d="M13.0787 30.4052C14.7872 31.7584 16.8418 29.883 18.089 27.5433C19.3362 25.2028 18.8102 23.1681 18.8102 23.1681C18.8102 23.1681 16.7091 23.1223 14.7171 24.8727C12.725 26.6224 11.3695 29.0528 13.0787 30.4052Z" fill="#E649AD"/>
<path d="M24.2405 30.4052C22.5321 31.7584 20.4767 29.883 19.2303 27.5433C17.983 25.2028 18.5091 23.1681 18.5091 23.1681C18.5091 23.1681 20.6101 23.1223 22.6022 24.8727C24.5943 26.6224 25.949 29.0528 24.2405 30.4052Z" fill="#E649AD"/>
<path d="M27.7771 21.5756C28.2078 23.7125 25.6044 24.6921 22.9528 24.7417C20.3021 24.7912 18.7271 23.3992 18.7271 23.3992C18.7271 23.3992 19.6396 21.5062 22.1028 20.525C24.5668 19.5439 27.3464 19.4395 27.7771 21.5756Z" fill="#E649AD"/>
<path d="M20.8777 23.3991C20.8777 24.5877 19.9148 25.5505 18.727 25.5505C17.5393 25.5505 16.5764 24.5877 16.5764 23.3991C16.5764 22.2114 17.5393 21.2485 18.727 21.2485C19.9148 21.2485 20.8777 22.2114 20.8777 23.3991Z" fill="#F5F014"/>
<path d="M159.976 83.5712C157.796 83.5712 157.35 86.3172 157.825 88.926C158.3 91.5341 159.976 92.8034 159.976 92.8034C159.976 92.8034 161.652 91.5341 162.127 88.926C162.602 86.3172 162.156 83.5712 159.976 83.5712Z" fill="#E649AD"/>
<path d="M150.926 90.4964C150.495 92.6326 153.099 93.613 155.749 93.6625C158.401 93.7121 159.976 92.32 159.976 92.32C159.976 92.32 159.063 90.427 156.599 89.4459C154.136 88.4647 151.356 88.3595 150.926 90.4964Z" fill="#E649AD"/>
<path d="M154.328 99.3261C156.036 100.679 158.091 98.8039 159.338 96.4634C160.585 94.1237 160.059 92.089 160.059 92.089C160.059 92.089 157.958 92.0432 155.966 93.7929C153.974 95.5433 152.618 97.9729 154.328 99.3261Z" fill="#E649AD"/>
<path d="M165.489 99.3261C163.781 100.679 161.725 98.8039 160.479 96.4634C159.232 94.1237 159.758 92.089 159.758 92.089C159.758 92.089 161.859 92.0432 163.851 93.7929C165.843 95.5433 167.198 97.9729 165.489 99.3261Z" fill="#E649AD"/>
<path d="M169.026 90.4964C169.457 92.6326 166.853 93.613 164.202 93.6625C161.551 93.7121 159.976 92.32 159.976 92.32C159.976 92.32 160.888 90.427 163.352 89.4459C165.816 88.4647 168.595 88.3595 169.026 90.4964Z" fill="#E649AD"/>
<path d="M162.127 92.3201C162.127 93.5078 161.164 94.4707 159.976 94.4707C158.788 94.4707 157.825 93.5078 157.825 92.3201C157.825 91.1323 158.788 90.1694 159.976 90.1694C161.164 90.1694 162.127 91.1323 162.127 92.3201Z" fill="#F5F014"/>
<path d="M28.4655 88.4602C26.9468 88.4602 26.6358 90.373 26.9674 92.1905C27.2983 94.0079 28.4655 94.8923 28.4655 94.8923C28.4655 94.8923 29.6334 94.0079 29.9643 92.1905C30.2951 90.373 29.9841 88.4602 28.4655 88.4602Z" fill="#E649AD"/>
<path d="M22.1601 93.2853C21.8605 94.7734 23.6741 95.4565 25.5213 95.4908C27.3686 95.5258 28.4656 94.5561 28.4656 94.5561C28.4656 94.5561 27.8298 93.2365 26.1137 92.5534C24.3969 91.8695 22.4605 91.7964 22.1601 93.2853Z" fill="#E649AD"/>
<path d="M24.5301 99.4375C25.7209 100.38 27.1526 99.0731 28.021 97.4431C28.8901 95.8124 28.5234 94.3944 28.5234 94.3944C28.5234 94.3944 27.0596 94.3624 25.6714 95.5822C24.2839 96.8012 23.3401 98.4944 24.5301 99.4375Z" fill="#E649AD"/>
<path d="M32.3071 99.4375C31.1171 100.38 29.6854 99.0731 28.8163 97.4431C27.9472 95.8124 28.3139 94.3944 28.3139 94.3944C28.3139 94.3944 29.7776 94.3624 31.1659 95.5822C32.5541 96.8012 33.498 98.4944 32.3071 99.4375Z" fill="#E649AD"/>
<path d="M34.7719 93.2853C35.0715 94.7734 33.2578 95.4565 31.4106 95.4908C29.5634 95.5258 28.4656 94.5561 28.4656 94.5561C28.4656 94.5561 29.1022 93.2365 30.8182 92.5534C32.5343 91.8695 34.4715 91.7964 34.7719 93.2853Z" fill="#E649AD"/>
<path d="M29.9644 94.556C29.9644 95.3832 29.2935 96.0541 28.4656 96.0541C27.6384 96.0541 26.9675 95.3832 26.9675 94.556C26.9675 93.7281 27.6384 93.0572 28.4656 93.0572C29.2935 93.0572 29.9644 93.7281 29.9644 94.556Z" fill="#F5F014"/>
<path d="M156.859 153.54C155.34 153.54 155.029 155.454 155.361 157.271C155.692 159.089 156.859 159.973 156.859 159.973C156.859 159.973 158.027 159.089 158.358 157.271C158.688 155.454 158.377 153.54 156.859 153.54Z" fill="#E649AD"/>
<path d="M150.553 158.365C150.254 159.854 152.067 160.537 153.914 160.572C155.762 160.606 156.859 159.636 156.859 159.636C156.859 159.636 156.223 158.317 154.507 157.633C152.79 156.95 150.854 156.876 150.553 158.365Z" fill="#E649AD"/>
<path d="M152.923 164.518C154.113 165.461 155.545 164.154 156.414 162.523C157.283 160.892 156.917 159.475 156.917 159.475C156.917 159.475 155.453 159.443 154.065 160.662C152.677 161.882 151.732 163.574 152.923 164.518Z" fill="#E649AD"/>
<path d="M160.7 164.518C159.51 165.461 158.078 164.154 157.209 162.523C156.34 160.892 156.707 159.475 156.707 159.475C156.707 159.475 158.171 159.443 159.559 160.662C160.946 161.882 161.891 163.574 160.7 164.518Z" fill="#E649AD"/>
<path d="M163.164 158.365C163.465 159.854 161.65 160.537 159.804 160.572C157.956 160.606 156.859 159.636 156.859 159.636C156.859 159.636 157.494 158.317 159.211 157.633C160.927 156.95 162.865 156.876 163.164 158.365Z" fill="#E649AD"/>
<path d="M158.357 159.636C158.357 160.464 157.687 161.135 156.859 161.135C156.031 161.135 155.361 160.464 155.361 159.636C155.361 158.808 156.031 158.137 156.859 158.137C157.687 158.137 158.357 158.808 158.357 159.636Z" fill="#F5F014"/>
<path d="M9.62961 119.529C7.47288 119.529 7.0307 122.247 7.50108 124.828C7.97146 127.41 9.62961 128.666 9.62961 128.666C9.62961 128.666 11.2877 127.41 11.7581 124.828C12.2285 122.247 11.7863 119.529 9.62961 119.529Z" fill="#E649AD"/>
<path d="M0.672695 126.382C0.246533 128.497 2.82333 129.467 5.44739 129.517C8.07069 129.565 9.62973 128.188 9.62973 128.188C9.62973 128.188 8.72632 126.314 6.28827 125.343C3.85023 124.372 1.09886 124.268 0.672695 126.382Z" fill="#E649AD"/>
<path d="M4.03938 135.122C5.7303 136.461 7.7643 134.605 8.99857 132.289C10.2328 129.973 9.71214 127.959 9.71214 127.959C9.71214 127.959 7.63241 127.914 5.66093 129.645C3.68945 131.378 2.34845 133.783 4.03938 135.122Z" fill="#E649AD"/>
<path d="M15.0867 135.122C13.3958 136.461 11.3618 134.605 10.1275 132.289C8.89328 129.973 9.41397 127.959 9.41397 127.959C9.41397 127.959 11.4937 127.914 13.4652 129.645C15.4367 131.378 16.7777 133.783 15.0867 135.122Z" fill="#E649AD"/>
<path d="M18.5867 126.382C19.0128 128.497 16.436 129.467 13.812 129.517C11.1887 129.565 9.62964 128.188 9.62964 128.188C9.62964 128.188 10.533 126.314 12.9711 125.343C15.4091 124.372 18.1605 124.268 18.5867 126.382Z" fill="#E649AD"/>
<path d="M11.7583 128.188C11.7583 129.363 10.8053 130.316 9.62975 130.316C8.45418 130.316 7.50122 129.363 7.50122 128.188C7.50122 127.012 8.45418 126.059 9.62975 126.059C10.8053 126.059 11.7583 127.012 11.7583 128.188Z" fill="#F5F014"/>
<path d="M128.605 0.553349C126.449 0.553349 126.007 3.27116 126.477 5.85253C126.947 8.43467 128.605 9.69031 128.605 9.69031C128.605 9.69031 130.264 8.43467 130.734 5.85253C131.204 3.27116 130.763 0.553349 128.605 0.553349Z" fill="#E649AD"/>
<path d="M119.648 7.40702C119.222 9.52182 121.799 10.4915 124.423 10.5411C127.047 10.5899 128.605 9.21231 128.605 9.21231C128.605 9.21231 127.702 7.33839 125.264 6.36714C122.826 5.39589 120.074 5.29222 119.648 7.40702Z" fill="#E649AD"/>
<path d="M123.015 16.146C124.706 17.4855 126.74 15.6292 127.974 13.3131C129.208 10.997 128.688 8.98362 128.688 8.98362C128.688 8.98362 126.608 8.93785 124.637 10.6699C122.665 12.402 121.324 14.8073 123.015 16.146Z" fill="#E649AD"/>
<path d="M134.062 16.146C132.371 17.4855 130.337 15.6292 129.103 13.3131C127.869 10.997 128.39 8.98362 128.39 8.98362C128.39 8.98362 130.469 8.93785 132.441 10.6699C134.412 12.402 135.753 14.8073 134.062 16.146Z" fill="#E649AD"/>
<path d="M137.563 7.40702C137.989 9.52182 135.412 10.4915 132.788 10.5411C130.165 10.5899 128.605 9.21231 128.605 9.21231C128.605 9.21231 129.509 7.33839 131.947 6.36714C134.385 5.39589 137.136 5.29222 137.563 7.40702Z" fill="#E649AD"/>
<path d="M130.734 9.2123C130.734 10.3879 129.781 11.3408 128.605 11.3408C127.43 11.3408 126.477 10.3879 126.477 9.2123C126.477 8.03673 127.43 7.08375 128.605 7.08375C129.781 7.08375 130.734 8.03673 130.734 9.2123Z" fill="#F5F014"/>
<path d="M57.7396 140.312C56.1219 140.312 55.7903 142.351 56.1432 144.287C56.4955 146.224 57.7396 147.165 57.7396 147.165C57.7396 147.165 58.9831 146.224 59.336 144.287C59.689 142.351 59.3574 140.312 57.7396 140.312Z" fill="#E649AD"/>
<path d="M51.0216 145.453C50.7022 147.039 52.6348 147.766 54.6025 147.803C56.5701 147.84 57.7396 146.807 57.7396 146.807C57.7396 146.807 57.0619 145.401 55.2329 144.673C53.4048 143.945 51.3411 143.867 51.0216 145.453Z" fill="#E649AD"/>
<path d="M53.5466 152.007C54.8151 153.012 56.3399 151.62 57.2662 149.882C58.1917 148.146 57.8013 146.636 57.8013 146.636C57.8013 146.636 56.2415 146.601 54.7626 147.9C53.2843 149.199 52.278 151.003 53.5466 152.007Z" fill="#E649AD"/>
<path d="M61.832 152.007C60.5634 153.012 59.0387 151.62 58.1132 149.882C57.1869 148.146 57.5772 146.636 57.5772 146.636C57.5772 146.636 59.1371 146.601 60.616 147.9C62.095 149.199 63.1006 151.003 61.832 152.007Z" fill="#E649AD"/>
<path d="M64.4575 145.453C64.7769 147.039 62.8443 147.766 60.8766 147.803C58.9082 147.84 57.7395 146.807 57.7395 146.807C57.7395 146.807 58.4172 145.401 60.2454 144.673C62.0743 143.945 64.1373 143.867 64.4575 145.453Z" fill="#E649AD"/>
<path d="M59.3359 146.807C59.3359 147.688 58.6208 148.403 57.7395 148.403C56.8574 148.403 56.1431 147.688 56.1431 146.807C56.1431 145.925 56.8574 145.211 57.7395 145.211C58.6208 145.211 59.3359 145.925 59.3359 146.807Z" fill="#F5F014"/>
<path d="M122.759 113.512C121.46 113.512 121.194 115.149 121.477 116.704C121.761 118.26 122.759 119.016 122.759 119.016C122.759 119.016 123.758 118.26 124.042 116.704C124.325 115.149 124.059 113.512 122.759 113.512Z" fill="#E649AD"/>
<path d="M117.365 117.64C117.108 118.914 118.66 119.498 120.241 119.528C121.821 119.557 122.759 118.728 122.759 118.728C122.759 118.728 122.215 117.599 120.747 117.015C119.278 116.429 117.621 116.367 117.365 117.64Z" fill="#E649AD"/>
<path d="M119.393 122.904C120.411 123.71 121.636 122.593 122.379 121.198C123.122 119.803 122.809 118.59 122.809 118.59C122.809 118.59 121.557 118.562 120.369 119.606C119.182 120.649 118.374 122.097 119.393 122.904Z" fill="#E649AD"/>
<path d="M126.046 122.904C125.027 123.71 123.802 122.593 123.059 121.198C122.316 119.803 122.629 118.59 122.629 118.59C122.629 118.59 123.882 118.562 125.069 119.606C126.257 120.649 127.064 122.097 126.046 122.904Z" fill="#E649AD"/>
<path d="M128.154 117.64C128.411 118.914 126.859 119.498 125.278 119.528C123.698 119.557 122.76 118.728 122.76 118.728C122.76 118.728 123.304 117.599 124.772 117.015C126.24 116.429 127.898 116.367 128.154 117.64Z" fill="#E649AD"/>
<path d="M124.042 118.728C124.042 119.436 123.468 120.01 122.76 120.01C122.051 120.01 121.477 119.436 121.477 118.728C121.477 118.019 122.051 117.445 122.76 117.445C123.468 117.445 124.042 118.019 124.042 118.728Z" fill="#F5F014"/>
</svg>
