<svg width="173" height="158" viewBox="0 0 173 158" fill="none" xmlns="http://www.w3.org/2000/svg">
<path d="M86.5659 17.5973C30.6426 17.5973 2.5448 4.44421 1.37533 3.88387C0.61068 3.51793 0.28744 2.60003 0.654138 1.83538C1.02007 1.06844 1.93643 0.74596 2.70337 1.11113C2.98392 1.24607 31.424 14.5234 86.5659 14.5234C141.706 14.5234 170.147 1.24607 170.428 1.11113C171.195 0.745197 172.112 1.06844 172.476 1.83538C172.842 2.6008 172.52 3.51793 171.754 3.88387C170.586 4.44421 142.487 17.5973 86.5659 17.5973Z" fill="#383838"/>
<path d="M108.038 19.3431C103.321 26.1442 95.4689 30.6063 86.5653 30.6063C77.6616 30.6063 69.8092 26.1442 65.0925 19.3431L35.3381 23.5087V156.187H86.5653H137.792V23.5087L108.038 19.3431Z" fill="white"/>
<path d="M35.3379 23.5087L2.04004 48.6096L21.5063 76.7851L35.3379 68.0766V23.5087Z" fill="white"/>
<path d="M137.792 23.5087L171.09 48.6096L151.624 76.7851L137.792 68.0766V23.5087Z" fill="white"/>
<path d="M3.40643 48.8299L21.7848 75.4296L34.3394 67.5246V25.513L3.40643 48.8299ZM21.5073 77.7845C21.1901 77.7845 20.8783 77.6328 20.6854 77.3523L1.21843 49.1775C0.913483 48.7361 1.01108 48.1346 1.43876 47.8121L34.7374 22.7113C35.0392 22.4826 35.4456 22.4444 35.7841 22.6152C36.1233 22.7837 36.3368 23.1298 36.3368 23.5087V68.0758C36.3368 68.4196 36.1607 68.7376 35.8703 68.9205L22.0386 77.6298C21.874 77.7335 21.6902 77.7845 21.5073 77.7845Z" fill="#383838"/>
<path d="M138.792 67.5246L151.346 75.4296L169.723 48.8299L138.792 25.513V67.5246ZM151.622 77.7845C151.441 77.7845 151.256 77.7335 151.091 77.6298L137.259 68.9205C136.97 68.7376 136.793 68.4196 136.793 68.0758V23.5087C136.793 23.1298 137.008 22.7837 137.347 22.6152C137.686 22.4452 138.091 22.4833 138.394 22.7113L171.692 47.8122C172.12 48.1346 172.216 48.7361 171.913 49.1775L152.446 77.3523C152.253 77.6328 151.94 77.7845 151.622 77.7845Z" fill="#383838"/>
<path d="M36.3367 155.188H136.793V24.3778L108.5 20.4165C103.396 27.4334 95.2417 31.605 86.566 31.605C77.888 31.605 69.7352 27.4334 64.6289 20.4165L36.3367 24.3778V155.188ZM137.792 157.187H35.3381C34.7869 157.187 34.3394 156.74 34.3394 156.188V23.5087C34.3394 23.0101 34.706 22.5885 35.1993 22.5199L64.9537 18.3536C65.3318 18.2995 65.6985 18.4649 65.9135 18.7729C70.6165 25.5572 78.3385 29.6068 86.566 29.6068C94.7934 29.6068 102.513 25.5572 107.217 18.7737C107.431 18.4634 107.799 18.2949 108.176 18.3536L137.93 22.5199C138.424 22.5885 138.792 23.0101 138.792 23.5087V156.188C138.792 156.74 138.345 157.187 137.792 157.187Z" fill="#383838"/>
<path d="M65.0802 30.1269H54.4429V5.15179H65.0802V30.1269Z" fill="white"/>
<path d="M118.269 30.1269H107.631V5.15179H118.269V30.1269Z" fill="white"/>
<path d="M55.5947 28.9742H63.9273V6.30449H55.5947V28.9742ZM65.08 31.2788H54.4427C53.8061 31.2788 53.29 30.7627 53.29 30.1269V5.15178C53.29 4.51521 53.8061 3.99908 54.4427 3.99908H65.08C65.7166 3.99908 66.2327 4.51521 66.2327 5.15178V30.1269C66.2327 30.7627 65.7166 31.2788 65.08 31.2788Z" fill="#383838"/>
<path d="M108.783 28.9742H117.116V6.30449H108.783V28.9742ZM118.269 31.2788H107.631C106.994 31.2788 106.478 30.7627 106.478 30.1269V5.15178C106.478 4.51521 106.994 3.99908 107.631 3.99908H118.269C118.905 3.99908 119.421 4.51521 119.421 5.15178V30.1269C119.421 30.7627 118.905 31.2788 118.269 31.2788Z" fill="#383838"/>
</svg>
