<svg width="175" height="200" viewBox="0 0 175 200" fill="none" xmlns="http://www.w3.org/2000/svg">
<path d="M110.224 42.3431C105.507 49.1442 97.6538 53.6063 88.7501 53.6063C79.8472 53.6063 71.9941 49.1442 67.2773 42.3431L37.5229 46.5087V179.187H88.7501H139.977V46.5087L110.224 42.3431Z" fill="white"/>
<path d="M37.5229 46.5087L4.2251 71.6096L23.6913 99.7851L37.5229 91.0766V46.5087Z" fill="white"/>
<path d="M139.977 46.5087L173.277 71.6096L153.806 99.7851L139.977 91.0766V46.5087Z" fill="white"/>
<path d="M5.59282 71.83L23.9689 98.4296L36.5228 90.5247V48.513L5.59282 71.83ZM23.6922 100.785C23.3742 100.785 23.0625 100.633 22.8688 100.352L3.40333 72.1776C3.0999 71.7362 3.19594 71.1347 3.62362 70.8122L36.9207 45.7113C37.2233 45.4834 37.6289 45.4452 37.9682 45.6152C38.3074 45.7837 38.5217 46.1299 38.5217 46.5088V91.0759C38.5217 91.4197 38.3448 91.7376 38.0551 91.9206L24.2235 100.63C24.0588 100.734 23.8744 100.785 23.6922 100.785Z" fill="#383838"/>
<path d="M140.976 90.5247L153.532 98.4296L171.905 71.83L140.976 48.513V90.5247ZM153.807 100.785C153.624 100.785 153.441 100.734 153.273 100.63L139.444 91.9206C139.154 91.7376 138.979 91.4197 138.979 91.0759V46.5088C138.979 46.1299 139.192 45.7837 139.535 45.6152C139.87 45.4452 140.275 45.4834 140.579 45.7113L173.88 70.8122C174.307 71.1347 174.398 71.7362 174.101 72.1776L154.63 100.352C154.439 100.633 154.127 100.785 153.807 100.785Z" fill="#383838"/>
<path d="M38.5214 178.188H138.978V47.3778L110.686 43.4165C105.581 50.4334 97.4263 54.605 88.7506 54.605C80.0741 54.605 71.9207 50.4334 66.8151 43.4165L38.5214 47.3778V178.188ZM139.977 180.187H37.5219C36.97 180.187 36.5225 179.74 36.5225 179.188V46.5087C36.5225 46.0101 36.8899 45.5885 37.3839 45.5199L67.1391 41.3536C67.505 41.2949 67.8831 41.4634 68.0981 41.7729C72.8027 48.5572 80.5232 52.6068 88.7506 52.6068C96.9781 52.6068 104.698 48.5572 109.403 41.7729C109.616 41.4634 109.986 41.2949 110.362 41.3536L140.114 45.5199C140.61 45.5885 140.976 46.0101 140.976 46.5087V179.188C140.976 179.74 140.526 180.187 139.977 180.187Z" fill="#383838"/>
<path d="M110.226 43.8801C110.085 43.8801 109.942 43.8602 109.8 43.8198L88.7507 37.7903L67.7003 43.8198C66.893 44.0524 66.033 43.5827 65.8005 42.7655C65.5664 41.9497 66.0376 41.0989 66.8541 40.8649L88.3277 34.7149C88.6036 34.6348 88.8979 34.6348 89.1738 34.7149L110.647 40.8649C111.464 41.0989 111.935 41.9497 111.701 42.7655C111.509 43.4402 110.894 43.8801 110.226 43.8801Z" fill="#383838"/>
<path d="M88.7508 37.7293C87.9015 37.7293 87.2139 37.0409 87.2139 36.1924V24.4001C87.2139 23.5516 87.9015 22.864 88.7508 22.864C89.6001 22.864 90.2877 23.5516 90.2877 24.4001V36.1924C90.2877 37.0409 89.6001 37.7293 88.7508 37.7293Z" fill="#383838"/>
<path d="M89.0055 25.937C88.1562 25.937 87.4694 25.2493 87.4694 24.4001C87.4694 23.5516 88.1562 22.8639 89.0055 22.8639C94.2918 22.8639 98.5915 18.5626 98.5915 13.2772C98.5915 7.99168 94.2918 3.69116 89.0055 3.69116C83.72 3.69116 79.4188 7.99168 79.4188 13.2772C79.4188 14.1257 78.7311 14.8141 77.8818 14.8141C77.0326 14.8141 76.345 14.1257 76.345 13.2772C76.345 6.29618 82.0238 0.617315 89.0055 0.617315C95.9857 0.617315 101.665 6.29618 101.665 13.2772C101.665 20.2581 95.9857 25.937 89.0055 25.937Z" fill="#383838"/>
<path d="M162.879 130.34L165.082 134.38L169.122 136.589L165.082 138.798L162.879 142.839L160.668 138.798L156.627 136.589L160.668 134.38L162.879 130.34Z" fill="#E649AD"/>
<path d="M42.0894 12.8875L45.3302 18.8119L51.2546 22.0527L45.3302 25.2928L42.0894 31.2171L38.8494 25.2928L32.925 22.0527L38.8494 18.8119L42.0894 12.8875Z" fill="#E649AD"/>
<path d="M6.91919 104.562L9.11173 108.572L13.1217 110.765L9.11173 112.958L6.91919 116.968L4.72582 112.958L0.716553 110.765L4.72582 108.572L6.91919 104.562Z" fill="#E649AD"/>
<path d="M119.521 149.285L121.038 152.058L123.815 153.575L121.038 155.092L119.521 157.865L118.005 155.092L115.231 153.575L118.005 152.058L119.521 149.285Z" fill="#E649AD"/>
<path d="M154.668 31.0594L157.573 36.3654L162.879 39.2678L157.573 42.1693L154.668 47.4761L151.763 42.1693L146.457 39.2678L151.763 36.3654L154.668 31.0594Z" fill="#E649AD"/>
<path d="M51.2546 188.354L53.2192 191.944L56.8099 193.908L53.2192 195.873L51.2546 199.464L49.2907 195.873L45.7 193.908L49.2907 191.944L51.2546 188.354Z" fill="#E649AD"/>
</svg>
