<svg width="241" height="124" viewBox="0 0 241 124" fill="none" xmlns="http://www.w3.org/2000/svg">
<path d="M7.46484 117.526C7.46484 117.526 10.0432 111.892 14.5574 103.62C34.0777 67.8796 69.6741 43.7652 110.105 38.8639C123.746 37.2104 137.535 37.1844 151.182 38.7862L175.429 40.8392V117.526H7.46484Z" fill="white"/>
<path d="M19.4312 95.4702L175.429 85.9178V73.0414L27.298 84.6294C24.4948 88.0829 21.873 91.7042 19.4312 95.4702Z" fill="white"/>
<path d="M47.885 83.0132C47.885 83.0132 57.9887 67.2779 75.9538 56.7703C85.2852 51.3117 90.4037 46.4951 93.1269 42.1275C67.2026 48.9598 44.1624 63.8816 27.3286 84.6218L47.885 83.0132Z" fill="white"/>
<path d="M26.9969 85.0181C25.8564 86.4361 24.7442 87.877 23.6624 89.3484H23.6753C24.7541 87.8846 25.858 86.4361 26.9969 85.0181Z" fill="white"/>
<path d="M166.511 40.0836L168.965 25.7161L175.429 27.0365V40.8391L166.511 40.0836Z" fill="white"/>
<path d="M14.5574 103.62C10.0432 111.892 7.46484 117.526 7.46484 117.526H175.429V85.9179L19.4312 95.4703C17.7158 98.1234 16.0813 100.83 14.5574 103.62Z" fill="white"/>
<path d="M118.093 50.8886C115.073 51.0876 112.137 51.3453 109.534 51.6731C105.229 52.2151 101.506 54.9085 99.6444 58.8271C99.4233 59.2929 99.2556 59.7732 99.0947 60.2535L109.076 59.4736C111.76 59.2639 114.167 57.7407 115.505 55.4049L118.093 50.8886Z" fill="white"/>
<path d="M119.698 77.0058L120.766 72.5765C121.075 71.2957 122.153 70.3504 123.462 70.2055L143.859 67.9817C145.224 67.833 146.525 68.5923 147.067 69.8533L149.313 75.0846L119.698 77.0058Z" fill="white"/>
<path d="M58.9705 56.7931C69.4995 50.2886 80.9975 45.3241 93.1268 42.1275H68.1547C64.7568 42.1275 61.5717 43.7826 59.6185 46.5629C57.9321 48.9621 57.3344 51.9605 57.9703 54.8232L58.3278 56.431L58.9705 56.7931Z" fill="white"/>
<path d="M9.04015 116.527H174.431V41.757L151.098 39.781C137.516 38.1899 123.775 38.2121 110.225 39.8557C70.1905 44.7089 34.7542 68.7265 15.4336 104.1C12.2945 109.848 10.0786 114.362 9.04015 116.527ZM175.43 118.524H7.46511C7.12532 118.524 6.80848 118.349 6.62467 118.067C6.44064 117.777 6.41533 117.419 6.55621 117.114C6.58274 117.053 9.20155 111.343 13.6809 103.147C33.3088 67.2048 69.3107 42.803 109.984 37.8713C123.691 36.2116 137.59 36.1864 151.298 37.7935L175.514 39.8435C176.031 39.887 176.428 40.3192 176.428 40.8384V117.526C176.428 118.082 175.981 118.524 175.43 118.524Z" fill="#383838"/>
<path d="M180.406 123.746H3.11022C1.39254 123.746 5.00637e-08 122.359 5.00637e-08 120.636C-0.000304896 118.921 1.39254 117.525 3.11022 117.525H180.406C182.124 117.525 183.516 118.921 183.516 120.636C183.516 122.359 182.124 123.746 180.406 123.746Z" fill="#383838"/>
<path d="M135.272 51.3292C128.347 51.3292 117.484 51.6791 109.658 52.6633C105.676 53.165 102.269 55.6289 100.546 59.2563C98.4802 63.6056 99.2609 68.6982 102.535 72.2256L103.086 72.8203C105.292 75.1988 108.418 76.5635 111.663 76.5635L159.356 73.2853V53.8839C156.059 53.3281 143.605 51.3292 135.272 51.3292ZM111.723 78.5609C107.859 78.5609 104.202 76.9675 101.62 74.1849L101.071 73.5903C97.2368 69.4529 96.3227 63.492 98.7425 58.3978C100.758 54.1538 104.746 51.269 109.41 50.6827C117.327 49.684 128.289 49.3303 135.272 49.3303C145.077 49.3303 160.377 52.0313 160.529 52.0588C161.006 52.1426 161.353 52.5566 161.353 53.0415V74.223C161.353 74.7414 160.947 75.1836 160.423 75.2141L111.732 78.5609C111.729 78.5609 111.726 78.5609 111.723 78.5609Z" fill="#383838"/>
<path d="M9.04015 116.527H174.431V86.9852L19.9963 96.4385C18.3351 99.0229 16.8013 101.6 15.4336 104.1C12.2945 109.848 10.0786 114.362 9.04015 116.527ZM175.43 118.524H7.46511C7.12532 118.524 6.80848 118.349 6.62467 118.067C6.44064 117.777 6.41533 117.419 6.55621 117.114C6.58274 117.053 9.20155 111.343 13.6809 103.147C15.1469 100.456 16.799 97.6964 18.5928 94.929C18.7651 94.6622 19.0533 94.4945 19.3704 94.4792L175.369 84.9268C175.637 84.9039 175.913 85.003 176.114 85.1936C176.315 85.3842 176.428 85.6434 176.428 85.9178V117.526C176.428 118.082 175.981 118.524 175.43 118.524Z" fill="#383838"/>
<path d="M27.8043 85.59C25.566 88.3726 23.4062 91.3077 21.3653 94.3572L174.431 84.9801V74.124L27.8043 85.59ZM19.4304 96.4766C19.0775 96.4766 18.7481 96.286 18.5674 95.981C18.3776 95.6532 18.3875 95.2492 18.5926 94.929C21.0688 91.1095 23.7363 87.4273 26.522 83.9966C26.6943 83.7832 26.9466 83.6536 27.2195 83.6307L175.351 72.0427C175.633 72.0275 175.904 72.119 176.108 72.3096C176.312 72.4925 176.428 72.7594 176.428 73.0414V85.9178C176.428 86.4515 176.017 86.886 175.49 86.9165L19.4914 96.4689C19.4716 96.4689 19.451 96.4766 19.4304 96.4766Z" fill="#383838"/>
<path d="M90.6925 43.8344C66.7176 50.714 45.6862 64.3489 29.6003 83.4476L47.3238 82.0601C49.091 79.4681 59.1199 65.4589 75.4497 55.9064C82.5047 51.7798 87.5233 47.8086 90.6925 43.8344ZM27.3285 85.6204C26.9595 85.6204 26.6179 85.4222 26.4441 85.0867C26.2589 84.736 26.3016 84.3015 26.5524 83.9966C43.6774 62.8943 66.6109 48.0815 92.8721 41.1615C93.267 41.0655 93.6878 41.205 93.9302 41.5351C94.1734 41.8652 94.191 42.3096 93.9745 42.6558C90.8511 47.666 85.1211 52.5642 76.4584 57.6324C58.9026 67.9007 48.8249 83.4019 48.725 83.5544C48.5558 83.8212 48.2737 83.9889 47.9627 84.0118L27.407 85.6204C27.3803 85.6204 27.3544 85.6204 27.3285 85.6204Z" fill="#383838"/>
<path d="M23.6761 90.3472C23.6388 90.3472 23.6022 90.3472 23.5656 90.3472C23.2103 90.3014 22.897 90.0803 22.7544 89.7525C22.6111 89.4247 22.6462 89.0435 22.8581 88.7538C23.93 87.2977 25.0583 85.834 26.2095 84.4083C26.2125 84.4007 26.2156 84.3931 26.2186 84.3931C26.564 83.9662 27.1944 83.8976 27.6237 84.2406C28.0529 84.5837 28.1215 85.2165 27.7754 85.6434C26.6974 86.9851 25.6202 88.3879 24.4812 89.9431C24.2921 90.2023 23.9917 90.3472 23.6761 90.3472Z" fill="#383838"/>
<path d="M68.1547 43.1277C65.0854 43.1277 62.1999 44.625 60.4358 47.1377C58.9149 49.3013 58.3713 52.0245 58.9454 54.6074L59.1474 55.5138C67.6539 50.3343 76.7146 46.1817 86.1687 43.1277H68.1547ZM58.9705 57.7933C58.8013 57.7933 58.632 57.7498 58.4795 57.6645L57.8361 57.3008C57.5899 57.1613 57.4138 56.9242 57.352 56.6467L56.996 55.0389C56.2992 51.9116 56.9579 48.6114 58.8013 45.9881C60.9382 42.9455 64.4351 41.128 68.1547 41.128H93.126C93.6284 41.128 94.0523 41.5023 94.1163 41.9986C94.1811 42.4972 93.8663 42.9653 93.3806 43.0941C81.4222 46.2457 70.0218 51.1401 59.4958 57.6431C59.3357 57.7422 59.1535 57.7933 58.9705 57.7933Z" fill="#383838"/>
<path d="M167.679 39.1802L174.431 39.752V27.8523L169.776 26.9023L167.679 39.1802ZM175.429 41.8386C175.401 41.8386 175.373 41.8371 175.346 41.834L166.427 41.0785C166.148 41.0564 165.892 40.9169 165.721 40.6943C165.55 40.474 165.48 40.1919 165.527 39.9159L167.98 25.5484C168.025 25.2816 168.177 25.0445 168.4 24.8928C168.624 24.738 168.9 24.6823 169.164 24.738L175.629 26.0592C176.094 26.1537 176.428 26.5631 176.428 27.0373V40.8384C176.428 41.1182 176.311 41.385 176.106 41.5741C175.92 41.7441 175.679 41.8386 175.429 41.8386Z" fill="#383838"/>
<path d="M239.21 94.0675C239.025 94.0675 238.838 94.0294 238.655 93.9607C218.238 86.0703 216.437 68.4581 220.256 38.7258C222.044 24.8073 218.734 13.4778 211.177 7.6396C205.545 3.28879 198.067 2.5005 190.666 5.48745C174.131 12.1505 174.003 26.284 174.004 26.425C174.007 27.2743 173.323 27.965 172.474 27.9696C172.472 27.9696 172.469 27.9696 172.467 27.9696C171.621 27.9696 170.934 27.2865 170.93 26.4403C170.927 25.7748 171.068 10.0708 189.516 2.63544C197.956 -0.764702 206.537 0.171478 213.056 5.20843C221.499 11.7289 225.234 24.0899 223.304 39.1154C219.603 67.9389 221.133 83.8899 239.764 91.0942C240.556 91.3992 240.949 92.2912 240.643 93.084C240.408 93.6939 239.826 94.0675 239.21 94.0675Z" fill="#383838"/>
<path d="M116.296 52.0168C113.813 52.2044 111.587 52.4201 109.659 52.6633C105.721 53.1604 102.346 55.5733 100.606 59.1335L108.998 58.4779C111.354 58.2942 113.463 56.9585 114.639 54.9085L116.296 52.0168ZM99.0947 61.2521C98.789 61.2521 98.4977 61.1111 98.3079 60.8687C98.1013 60.6041 98.0411 60.2542 98.1478 59.9363C98.3201 59.4186 98.5038 58.901 98.7425 58.3978C100.758 54.1538 104.746 51.269 109.409 50.6827C111.847 50.3747 114.747 50.1079 118.026 49.8914C118.404 49.8708 118.745 50.0477 118.94 50.3579C119.135 50.6705 119.143 51.0654 118.96 51.3848L116.372 55.9019C114.867 58.5267 112.169 60.2336 109.154 60.4707L99.1732 61.2498C99.1465 61.2514 99.1206 61.2521 99.0947 61.2521Z" fill="#383838"/>
<path d="M144.202 68.962C144.125 68.962 144.046 68.9666 143.968 68.9758L123.57 71.1965C122.684 71.2956 121.946 71.9437 121.737 72.8127L120.987 75.9156L147.837 74.1774L146.149 70.2512C145.809 69.4576 145.046 68.962 144.202 68.962ZM119.698 78.0045C119.404 78.0045 119.124 77.8749 118.933 77.6461C118.729 77.4022 118.652 77.082 118.727 76.7694L119.795 72.3401C120.202 70.6629 121.631 69.4035 123.352 69.2129L143.751 66.989C145.565 66.7969 147.266 67.7842 147.985 69.4591L150.23 74.6882C150.359 74.9855 150.334 75.3286 150.164 75.603C149.995 75.8775 149.701 76.0604 149.377 76.0757L119.762 77.9968C119.74 78.0045 119.72 78.0045 119.698 78.0045Z" fill="#383838"/>
</svg>
