<svg width="268" height="156" viewBox="0 0 268 156" fill="none" xmlns="http://www.w3.org/2000/svg">
<path d="M267.232 49.5574H250.796V36.6345H267.232V49.5574Z" fill="#383838"/>
<path d="M185.582 143.254H69.8665V136.218H185.582V143.254Z" fill="#383838"/>
<path d="M219.33 154.431L43.737 36.6346L35.8008 48.465L193.758 154.431H219.33Z" fill="white"/>
<path d="M194.063 153.424H216.047L44.01 38.0205L37.1868 48.192L194.063 153.424ZM219.329 155.429H193.758C193.56 155.429 193.367 155.368 193.202 155.254L35.2443 49.2952C34.7862 48.9872 34.6642 48.3658 34.9707 47.9084L42.9069 36.0773C43.0548 35.8585 43.2835 35.7052 43.5442 35.6541C43.8042 35.6076 44.0748 35.6572 44.2936 35.8043L219.886 153.6C220.251 153.844 220.413 154.301 220.285 154.72C220.156 155.14 219.769 155.429 219.329 155.429Z" fill="#383838"/>
<path d="M219.33 48.465L211.393 36.6346L35.8008 154.431H61.3728L219.33 48.465Z" fill="white"/>
<path d="M39.083 153.424H61.0689L217.942 48.192L211.12 38.0205L39.083 153.424ZM61.3731 155.429H35.801C35.3611 155.429 34.9731 155.14 34.845 154.72C34.7177 154.301 34.8793 153.844 35.2445 153.6L210.836 35.8044C211.058 35.6572 211.327 35.6061 211.587 35.6542C211.846 35.7052 212.074 35.8585 212.223 36.0773L220.159 47.9084C220.467 48.3658 220.344 48.9872 219.886 49.2952L61.9296 155.254C61.7649 155.368 61.5713 155.429 61.3731 155.429Z" fill="#383838"/>
<path d="M240.726 56.3433H14.4051C7.53776 56.3433 1.97021 50.7757 1.97021 43.9083C1.97021 37.0402 7.53776 31.4734 14.4051 31.4734H240.726C247.593 31.4734 253.161 37.0402 253.161 43.9083C253.161 50.7757 247.593 56.3433 240.726 56.3433Z" fill="white"/>
<path d="M236.253 16.4632H191.839C187.694 16.4632 184.335 13.1027 184.335 8.95768C184.335 4.8127 187.694 1.45296 191.839 1.45296H236.253C240.398 1.45296 243.758 4.8127 243.758 8.95768C243.758 13.1027 240.398 16.4632 236.253 16.4632Z" fill="white"/>
<path d="M233.337 4.88955H194.755C192.509 4.88955 190.688 6.71083 190.688 8.95752C190.688 11.2042 192.509 13.0255 194.755 13.0255H197.772H198.706H201.723H202.296H205.312H206.247H209.263H218.829H221.846H222.781H225.797H226.37H229.387H230.321H233.337C235.584 13.0255 237.405 11.2042 237.405 8.95752C237.405 6.71083 235.584 4.88955 233.337 4.88955Z" fill="white"/>
<path d="M191.839 2.45166C188.252 2.45166 185.334 5.36924 185.334 8.95769C185.334 12.5461 188.252 15.4637 191.839 15.4637H236.254C239.841 15.4637 242.758 12.5461 242.758 8.95769C242.758 5.36924 239.841 2.45166 236.254 2.45166H191.839ZM236.254 17.4626H191.839C187.151 17.4626 183.335 13.6478 183.335 8.95769C183.335 4.26762 187.151 0.452738 191.839 0.452738H236.254C240.942 0.452738 244.758 4.26762 244.758 8.95769C244.758 13.6478 240.942 17.4626 236.254 17.4626Z" fill="#383838"/>
<path d="M194.755 5.88836C193.064 5.88836 191.688 7.26519 191.688 8.95764C191.688 10.6509 193.064 12.0269 194.755 12.0269H233.337C235.029 12.0269 236.405 10.6509 236.405 8.95764C236.405 7.26519 235.029 5.88836 233.337 5.88836H194.755ZM233.337 14.0258H194.755C191.962 14.0258 189.688 11.7525 189.688 8.95764C189.688 6.16357 191.962 3.88944 194.755 3.88944H233.337C236.131 3.88944 238.405 6.16357 238.405 8.95764C238.405 11.7525 236.131 14.0258 233.337 14.0258Z" fill="#383838"/>
<path d="M236.253 31.4733H191.839C187.694 31.4733 184.335 28.1128 184.335 23.9678C184.335 19.8229 187.694 16.4631 191.839 16.4631H236.253C240.398 16.4631 243.758 19.8229 243.758 23.9678C243.758 28.1128 240.398 31.4733 236.253 31.4733Z" fill="white"/>
<path d="M233.337 19.8997H194.755C192.509 19.8997 190.688 21.721 190.688 23.9677C190.688 26.2144 192.509 28.0357 194.755 28.0357H197.772H198.706H201.723H202.296H205.312H206.247H209.263H218.829H221.846H222.781H225.797H226.37H229.387H230.321H233.337C235.584 28.0357 237.405 26.2144 237.405 23.9677C237.405 21.721 235.584 19.8997 233.337 19.8997Z" fill="white"/>
<path d="M191.839 17.4625C188.252 17.4625 185.334 20.3801 185.334 23.967C185.334 27.5555 188.252 30.4731 191.839 30.4731H236.254C239.841 30.4731 242.758 27.5555 242.758 23.967C242.758 20.3801 239.841 17.4625 236.254 17.4625H191.839ZM236.254 32.472H191.839C187.151 32.472 183.335 28.6571 183.335 23.967C183.335 19.2785 187.151 15.4636 191.839 15.4636H236.254C240.942 15.4636 244.758 19.2785 244.758 23.967C244.758 28.6571 240.942 32.472 236.254 32.472Z" fill="#383838"/>
<path d="M194.755 20.8993C193.064 20.8993 191.688 22.2761 191.688 23.967C191.688 25.6602 193.064 27.0363 194.755 27.0363H233.337C235.029 27.0363 236.405 25.6602 236.405 23.967C236.405 22.2761 235.029 20.8993 233.337 20.8993H194.755ZM233.337 29.0352H194.755C191.962 29.0352 189.688 26.7618 189.688 23.967C189.688 21.1745 191.962 18.9003 194.755 18.9003H233.337C236.131 18.9003 238.405 21.1745 238.405 23.967C238.405 26.7618 236.131 29.0352 233.337 29.0352Z" fill="#383838"/>
<path d="M14.4051 32.4719C8.09955 32.4719 2.96959 37.6019 2.96959 43.9082C2.96959 50.2144 8.09955 55.3444 14.4051 55.3444H240.725C247.031 55.3444 252.161 50.2144 252.161 43.9082C252.161 37.6019 247.031 32.4719 240.725 32.4719H14.4051ZM240.725 57.3433H14.4051C6.99793 57.3433 0.971436 51.3161 0.971436 43.9082C0.971436 36.5002 6.99793 30.473 14.4051 30.473H240.725C248.133 30.473 254.16 36.5002 254.16 43.9082C254.16 51.3161 248.133 57.3433 240.725 57.3433Z" fill="#383838"/>
</svg>
