<svg width="134" height="185" viewBox="0 0 134 185" fill="none" xmlns="http://www.w3.org/2000/svg">
<path d="M132.09 183.111H1.52393V1.76694H132.09V183.111Z" fill="white"/>
<path d="M132.09 36.3477H1.52393V1.76685H132.09V36.3477Z" fill="white"/>
<path d="M116.754 103.196C116.754 130.78 94.3922 153.142 66.8067 153.142C39.2221 153.142 16.8604 130.78 16.8604 103.196C16.8604 75.6111 39.2221 53.2494 66.8067 53.2494C94.3922 53.2494 116.754 75.6111 116.754 103.196Z" fill="white"/>
<path d="M1.52393 164.412V183.111H132.09V164.412H1.52393Z" fill="white"/>
<path d="M28.523 19.4385C28.523 23.8602 24.9392 27.4433 20.519 27.4433C16.098 27.4433 12.5149 23.8602 12.5149 19.4385C12.5149 15.0167 16.098 11.4336 20.519 11.4336C24.9392 11.4336 28.523 15.0167 28.523 19.4385Z" fill="white"/>
<path d="M52.86 19.4385C52.86 23.8602 49.2761 27.4433 44.8559 27.4433C40.4349 27.4433 36.8518 23.8602 36.8518 19.4385C36.8518 15.0167 40.4349 11.4336 44.8559 11.4336C49.2761 11.4336 52.86 15.0167 52.86 19.4385Z" fill="white"/>
<path d="M122.461 25.728H84.553V13.1489H122.461V25.728Z" fill="white"/>
<path d="M66.8067 54.2482C39.8166 54.2482 17.859 76.2058 17.859 103.196C17.859 130.185 39.8166 152.144 66.8067 152.144C93.7967 152.144 115.754 130.185 115.754 103.196C115.754 76.2058 93.7967 54.2482 66.8067 54.2482ZM66.8067 154.141C38.715 154.141 15.8616 131.287 15.8616 103.196C15.8616 75.1042 38.715 52.25 66.8067 52.25C94.8983 52.25 117.753 75.1042 117.753 103.196C117.753 131.287 94.8983 154.141 66.8067 154.141Z" fill="#383838"/>
<path d="M110.094 103.196C110.094 127.103 90.7137 146.483 66.8066 146.483C42.9004 146.483 23.5195 127.103 23.5195 103.196C23.5195 79.2888 42.9004 59.9087 66.8066 59.9087C90.7137 59.9087 110.094 79.2888 110.094 103.196Z" fill="white"/>
<path d="M20.5189 12.4324C16.656 12.4324 13.5128 15.5733 13.5128 19.4385C13.5128 23.3037 16.656 26.4447 20.5189 26.4447C24.3818 26.4447 27.5243 23.3037 27.5243 19.4385C27.5243 15.5733 24.3818 12.4324 20.5189 12.4324ZM20.5189 28.4421C15.5544 28.4421 11.5154 24.4015 11.5154 19.4385C11.5154 14.4755 15.5544 10.435 20.5189 10.435C25.4835 10.435 29.5224 14.4755 29.5224 19.4385C29.5224 24.4015 25.4835 28.4421 20.5189 28.4421Z" fill="#383838"/>
<path d="M44.8561 12.4324C40.9932 12.4324 37.85 15.5733 37.85 19.4385C37.85 23.3037 40.9932 26.4447 44.8561 26.4447C48.719 26.4447 51.8614 23.3037 51.8614 19.4385C51.8614 15.5733 48.719 12.4324 44.8561 12.4324ZM44.8561 28.4421C39.8916 28.4421 35.8525 24.4015 35.8525 19.4385C35.8525 14.4755 39.8916 10.435 44.8561 10.435C49.8206 10.435 53.8588 14.4755 53.8588 19.4385C53.8588 24.4015 49.8206 28.4421 44.8561 28.4421Z" fill="#383838"/>
<path d="M2.52256 35.3415H131.09V2.76553H2.52256V35.3415ZM132.09 37.3388H1.52385C0.972663 37.3388 0.525146 36.8966 0.525146 36.3477V1.76686C0.525146 1.21033 0.972663 0.768188 1.52385 0.768188H132.09C132.642 0.768188 133.089 1.21033 133.089 1.76686V36.3477C133.089 36.8966 132.642 37.3388 132.09 37.3388Z" fill="#383838"/>
<path d="M85.5534 24.7293H121.462V14.1477H85.5534V24.7293ZM122.461 26.7267H84.5532C84.0012 26.7267 83.5537 26.2845 83.5537 25.728V13.149C83.5537 12.5924 84.0012 12.1503 84.5532 12.1503H122.461C123.013 12.1503 123.46 12.5924 123.46 13.149V25.728C123.46 26.2845 123.013 26.7267 122.461 26.7267Z" fill="#383838"/>
<path d="M2.52256 182.111H131.09V2.76558H2.52256V182.111ZM132.09 184.109H1.52385C0.972663 184.109 0.525146 183.662 0.525146 183.11V1.76692C0.525146 1.21039 0.972663 0.76825 1.52385 0.76825H132.09C132.642 0.76825 133.089 1.21039 133.089 1.76692V183.11C133.089 183.662 132.642 184.109 132.09 184.109Z" fill="#383838"/>
<path d="M24.9094 114.108C29.7466 132.732 46.6696 146.483 66.8067 146.483C86.5627 146.483 103.216 133.243 108.407 115.157L105.164 117.014C93.6405 123.611 79.5588 123.918 67.7597 117.827L67.0599 117.431C54.0974 110.091 38.6541 108.97 24.9094 114.108Z" fill="white"/>
<path d="M66.8068 60.9074C43.4883 60.9074 24.5184 79.8774 24.5184 103.196C24.5184 126.514 43.4883 145.484 66.8068 145.484C90.1245 145.484 109.094 126.514 109.094 103.196C109.094 79.8774 90.1245 60.9074 66.8068 60.9074ZM66.8068 147.482C42.3867 147.482 22.521 127.615 22.521 103.196C22.521 78.7757 42.3867 58.91 66.8068 58.91C91.2261 58.91 111.093 78.7757 111.093 103.196C111.093 127.615 91.2261 147.482 66.8068 147.482Z" fill="#383838"/>
<path d="M94.1583 99.9559C93.1459 99.9559 92.3249 99.1348 92.3249 98.1224C92.3249 97.11 93.1459 96.2897 94.1583 96.2897C95.1707 96.2897 95.9911 97.11 95.9911 98.1224C95.9911 99.1348 95.1707 99.9559 94.1583 99.9559ZM91.3071 92.827C87.3695 92.827 84.1782 96.019 84.1782 99.9559C84.1782 103.893 87.3695 107.085 91.3071 107.085C95.2439 107.085 98.4352 103.893 98.4352 99.9559C98.4352 96.019 95.2439 92.827 91.3071 92.827Z" fill="white"/>
<path d="M82.0464 105.436C82.0464 106.674 81.0431 107.677 79.8058 107.677C78.5685 107.677 77.5652 106.674 77.5652 105.436C77.5652 104.199 78.5685 103.196 79.8058 103.196C81.0431 103.196 82.0464 104.199 82.0464 105.436Z" fill="white"/>
<path d="M91.4914 112.371C91.4914 114.615 89.6723 116.435 87.4272 116.435C85.1828 116.435 83.363 114.615 83.363 112.371C83.363 110.126 85.1828 108.307 87.4272 108.307C89.6723 108.307 91.4914 110.126 91.4914 112.371Z" fill="white"/>
</svg>
