<svg width="209" height="201" viewBox="0 0 209 201" fill="none" xmlns="http://www.w3.org/2000/svg">
<path d="M123.924 1.00087C119.207 7.80118 111.354 12.2609 102.451 12.2609C93.5471 12.2609 85.694 7.80118 80.9773 1.00087L51.2229 5.16336V137.845H102.451H153.678V5.16336L123.924 1.00087Z" fill="white"/>
<path d="M51.2231 5.16337L17.926 30.2681L37.3923 58.4451L51.2231 49.7312V5.16337Z" fill="white"/>
<path d="M153.678 5.16337L186.976 30.2681L167.51 58.4451L153.678 49.7312V5.16337Z" fill="white"/>
<path d="M19.2922 30.4892L37.6697 57.088L50.2244 49.1824V7.16836L19.2922 30.4892ZM37.3922 59.4438C37.0751 59.4438 36.7633 59.2913 36.5704 59.0092L17.1042 30.8322C16.7992 30.39 16.8968 29.7954 17.3245 29.4676L50.6223 4.37046C50.9235 4.14175 51.3298 4.10365 51.6691 4.27137C52.0083 4.43909 52.2218 4.78979 52.2218 5.16336V49.7312C52.2218 50.0743 52.0457 50.3945 51.7552 50.5775L37.9236 59.2837C37.7589 59.3905 37.5752 59.4438 37.3922 59.4438Z" fill="#383838"/>
<path d="M154.677 49.1824L167.232 57.088L185.61 30.4892L154.677 7.16836V49.1824ZM167.509 59.4438C167.327 59.4438 167.143 59.3905 166.978 59.2837L153.146 50.5775C152.856 50.3945 152.679 50.0743 152.679 49.7312V5.16336C152.679 4.78979 152.894 4.43909 153.233 4.27137C153.571 4.10365 153.977 4.14175 154.28 4.37046L187.577 29.4676C188.004 29.7954 188.102 30.39 187.798 30.8322L168.332 59.0092C168.139 59.2913 167.826 59.4438 167.509 59.4438Z" fill="#383838"/>
<path d="M52.2218 136.845H152.679V6.03252L124.387 2.07581C119.281 9.08957 111.127 13.2597 102.451 13.2597C93.7745 13.2597 85.621 9.08957 80.5154 2.07581L52.2218 6.03252V136.845ZM153.678 138.843H51.2231C50.6719 138.843 50.2244 138.396 50.2244 137.844V5.16339C50.2244 4.66785 50.5911 4.24852 51.0843 4.17992L80.8394 0.00982666C81.2206 -0.0435333 81.5843 0.124191 81.7993 0.429138C86.5023 7.21419 94.2235 11.2623 102.451 11.2623C110.678 11.2623 118.399 7.21419 123.103 0.429138C123.318 0.124191 123.682 -0.0435333 124.063 0.00982666L153.817 4.17992C154.31 4.24852 154.677 4.66785 154.677 5.16339V137.844C154.677 138.396 154.23 138.843 153.678 138.843Z" fill="#383838"/>
<path d="M196.538 138.066H12.0862C6.1535 138.066 1.34473 133.257 1.34473 127.324C1.34473 121.392 6.1535 116.583 12.0862 116.583H196.538C202.469 116.583 207.279 121.392 207.279 127.324C207.279 133.257 202.469 138.066 196.538 138.066Z" fill="white"/>
<path d="M104.312 138.066H12.0862L19.7868 199.538H188.837L196.537 138.066H104.312Z" fill="white"/>
<path d="M17.926 184.682L19.787 199.538H188.837L190.698 184.682H17.926Z" fill="white"/>
<path d="M93.5709 138.066H12.0862C6.1535 138.066 1.34473 133.257 1.34473 127.324C1.34473 121.392 6.1535 116.583 12.0862 116.583H93.5709C99.5029 116.583 104.312 121.392 104.312 127.324C104.312 133.257 99.5029 138.066 93.5709 138.066Z" fill="white"/>
<path d="M12.0862 117.582C6.71383 117.582 2.34357 121.952 2.34357 127.324C2.34357 132.696 6.71383 137.067 12.0862 137.067H196.538C201.91 137.067 206.28 132.696 206.28 127.324C206.28 121.952 201.91 117.582 196.538 117.582H12.0862ZM196.538 139.064H12.0862C5.61222 139.064 0.345947 133.798 0.345947 127.324C0.345947 120.851 5.61222 115.584 12.0862 115.584H196.538C203.012 115.584 208.277 120.851 208.277 127.324C208.277 133.798 203.012 139.064 196.538 139.064Z" fill="#383838"/>
<path d="M20.6683 198.54H187.955L195.406 139.064H13.2177L20.6683 198.54ZM188.837 200.537H19.787C19.2831 200.537 18.8584 200.162 18.7951 199.662L11.0945 138.189C11.0594 137.906 11.1471 137.619 11.3369 137.405C11.5268 137.19 11.7997 137.067 12.0863 137.067H196.538C196.824 137.067 197.096 137.19 197.286 137.405C197.476 137.619 197.564 137.906 197.529 138.189L189.828 199.662C189.766 200.162 189.34 200.537 188.837 200.537Z" fill="#383838"/>
<path d="M90.5375 59.2227C90.5375 63.1741 87.331 66.3806 83.375 66.3806C79.4199 66.3806 76.2134 63.1741 76.2134 59.2227C76.2134 55.266 79.4199 52.0565 83.375 52.0565C87.331 52.0565 90.5375 55.266 90.5375 59.2227Z" fill="white"/>
<path d="M134.778 72.4086C134.778 74.0576 133.441 75.3948 131.791 75.3948C130.142 75.3948 128.806 74.0576 128.806 72.4086C128.806 70.7588 130.142 69.4224 131.791 69.4224C133.441 69.4224 134.778 70.7588 134.778 72.4086Z" fill="white"/>
<path d="M146.728 60.5226C146.728 63.7024 144.152 66.28 140.972 66.28C137.793 66.28 135.215 63.7024 135.215 60.5226C135.215 57.3397 137.793 54.7629 140.972 54.7629C144.152 54.7629 146.728 57.3397 146.728 60.5226Z" fill="white"/>
<path d="M193.656 116.583C195.463 113.446 196.512 109.817 196.512 105.937C196.512 94.1253 186.936 84.5493 175.125 84.5493C168.023 84.5493 161.747 88.0257 157.857 93.3538C157.139 85.9589 150.909 80.1787 143.326 80.1787C136.26 80.1787 130.367 85.1973 129.015 91.8642C127.572 90.2182 125.883 88.801 124.001 87.6598C124.236 86.6595 124.373 85.6211 124.373 84.5493C124.373 77.043 118.288 70.9579 110.781 70.9579C103.275 70.9579 97.189 77.043 97.189 84.5493C97.189 86.5825 97.648 88.5045 98.4485 90.2366C95.617 92.8507 93.4939 96.2089 92.3983 100.014C89.9473 97.8762 86.7515 96.5718 83.2438 96.5718C82.5714 96.5718 81.9158 96.6351 81.2686 96.7273C81.2693 96.6747 81.2769 96.6244 81.2769 96.5718C81.2769 82.4253 69.8087 70.9579 55.663 70.9579C43.2623 70.9579 32.9231 79.7708 30.5598 91.4747C30.3883 91.4693 30.2213 91.4487 30.049 91.4487C20.1428 91.4487 12.1113 99.4794 12.1113 109.386C12.1113 111.948 12.6572 114.379 13.6246 116.583H193.656Z" fill="white"/>
<path d="M83.376 53.0552C79.9773 53.0552 77.213 55.8226 77.213 59.2227C77.213 62.6175 79.9773 65.3819 83.376 65.3819C86.7746 65.3819 89.5389 62.6175 89.5389 59.2227C89.5389 55.8226 86.7746 53.0552 83.376 53.0552ZM83.376 67.3793C78.8757 67.3793 75.2148 63.7191 75.2148 59.2227C75.2148 54.7171 78.8757 51.0578 83.376 51.0578C87.8762 51.0578 91.5363 54.7171 91.5363 59.2227C91.5363 63.7191 87.8762 67.3793 83.376 67.3793Z" fill="#383838"/>
<path d="M131.791 70.4204C130.696 70.4204 129.805 71.3123 129.805 72.4086C129.805 73.5041 130.696 74.3953 131.791 74.3953C132.888 74.3953 133.78 73.5041 133.78 72.4086C133.78 71.3123 132.888 70.4204 131.791 70.4204ZM131.791 76.3935C129.594 76.3935 127.806 74.6057 127.806 72.4086C127.806 70.2107 129.594 68.423 131.791 68.423C133.989 68.423 135.777 70.2107 135.777 72.4086C135.777 74.6057 133.989 76.3935 131.791 76.3935Z" fill="#383838"/>
<path d="M140.972 55.7616C138.348 55.7616 136.214 57.8963 136.214 60.5226C136.214 63.1467 138.348 65.2813 140.972 65.2813C143.595 65.2813 145.73 63.1467 145.73 60.5226C145.73 57.8963 143.595 55.7616 140.972 55.7616ZM140.972 67.2786C137.247 67.2786 134.216 64.2483 134.216 60.5226C134.216 56.7985 137.247 53.7642 140.972 53.7642C144.697 53.7642 147.728 56.7985 147.728 60.5226C147.728 64.2483 144.697 67.2786 140.972 67.2786Z" fill="#383838"/>
<path d="M14.2901 115.585H193.069C194.67 112.616 195.513 109.293 195.513 105.938C195.513 94.6949 186.367 85.548 175.125 85.548C168.655 85.548 162.502 88.686 158.664 93.9432C158.419 94.2787 157.99 94.4258 157.593 94.3176C157.194 94.2078 156.903 93.8632 156.863 93.4507C156.184 86.4538 150.364 81.1774 143.326 81.1774C136.88 81.1774 131.273 85.7562 129.994 92.0632C129.918 92.4353 129.638 92.7325 129.272 92.8301C128.906 92.927 128.515 92.8088 128.264 92.5221C126.888 90.9524 125.28 89.6038 123.483 88.5136C123.114 88.2895 122.929 87.8527 123.029 87.4319C123.258 86.456 123.374 85.4863 123.374 84.5493C123.374 77.6057 117.725 71.9566 110.781 71.9566C103.838 71.9566 98.1884 77.6057 98.1884 84.5493C98.1884 86.3698 98.581 88.1424 99.3549 89.818C99.5371 90.2114 99.444 90.6765 99.1254 90.9707C96.3778 93.5087 94.3827 96.7312 93.3581 100.291C93.2635 100.619 93.0082 100.876 92.6803 100.972C92.3518 101.068 91.9988 100.991 91.7419 100.767C89.3793 98.7057 86.3611 97.5706 83.243 97.5706C82.6903 97.5706 82.1078 97.6171 81.4095 97.7169C81.1214 97.7589 80.8286 97.6727 80.609 97.4775C80.3887 97.2846 80.2652 97.0049 80.2698 96.7137C80.2698 96.6999 80.2766 96.5695 80.2774 96.5558C80.2774 82.9987 69.2353 71.9566 55.6629 71.9566C43.9911 71.9566 33.8463 80.2489 31.5394 91.6721C31.4426 92.1494 31.0652 92.4818 30.5292 92.4734L30.27 92.4588C30.1968 92.4535 30.1229 92.4475 30.049 92.4475C20.7084 92.4475 13.11 100.047 13.11 109.386C13.11 111.52 13.5071 113.602 14.2901 115.585ZM193.656 117.582H13.6245C13.2281 117.582 12.8683 117.348 12.7097 116.985C11.65 114.57 11.1125 112.014 11.1125 109.386C11.1125 99.0411 19.4521 90.6064 29.7615 90.4524C32.567 78.5274 43.3263 69.9592 55.6629 69.9592C70.016 69.9592 81.7511 81.3802 82.258 95.612C82.6003 95.5853 82.9243 95.5724 83.243 95.5724C86.3496 95.5724 89.3694 96.5475 91.8913 98.3428C93.0234 95.2072 94.8554 92.3537 97.2545 89.9942C96.5478 88.2514 96.191 86.4224 96.191 84.5493C96.191 76.5041 102.736 69.9592 110.781 69.9592C118.826 69.9592 125.371 76.5041 125.371 84.5493C125.371 85.4123 125.288 86.2959 125.123 87.1841C126.34 87.9754 127.472 88.8788 128.509 89.8836C130.592 83.5842 136.555 79.18 143.326 79.18C150.625 79.18 156.783 84.13 158.47 91.0134C162.697 86.3043 168.771 83.5506 175.125 83.5506C187.469 83.5506 197.511 93.5933 197.511 105.938C197.511 109.832 196.477 113.686 194.522 117.082C194.343 117.391 194.013 117.582 193.656 117.582Z" fill="#383838"/>
</svg>
